<svg xmlns="http://www.w3.org/2000/svg" width="1977.71" height="378.21"><path fill="#333e47" d="M963.28 73.37c-22.59.92-48.72 9.42-65.07 21.67a116.57 116.57 0 0 0-44.65 70.55c-2.61 13.02-2.4 36.69.43 49.58 9.07 41.3 38.38 73.24 78.33 85.35 4.74 1.44 11.26 3 14.5 3.47 10.01 1.46 32.4 1.23 41.95-.43 15.64-2.73 32.14-9.49 45.94-18.81 12.9-8.72 28.36-26.56 35.86-41.37 2.63-5.21 2.64-5.25 2.64-29.28 0-26.54-.37-28.61-5.95-33.3l-3.2-2.7h-92l.32 14.48.33 14.48 3.26 3.27 3.27 3.26 27.73.5 27.74.5.29 6.04c.27 5.56-.01 6.49-3.63 12-10.13 15.44-27.65 26.35-47.34 29.5-9.53 1.51-29.2.77-37.01-1.4-12.1-3.36-20.72-8.5-30.33-18.12-10.07-10.07-14.99-18.62-18.68-32.45-2.62-9.82-2.82-29.19-.42-40.07 6.6-29.78 29.9-50.4 60.96-53.92 25.77-2.93 53.57 8.73 66.15 27.73 1.52 2.3 3.42 4.2 4.2 4.2 1.23 0 18.86-4.58 37.12-9.63l5.32-1.47-3.2-5.68c-19.19-33.99-54.3-55.27-95.43-57.86-3.05-.2-6.2-.22-9.43-.09zm450.43.03c-21.63-1.23-47.9 5.16-65.95 16.04-26.31 15.85-43.75 39.33-51.72 69.65-10.35 39.4.36 82.45 27.6 110.9a120.9 120.9 0 0 0 28.83 22.1c8.82 4.76 25.93 10.58 34.74 11.83 8.84 1.26 31.99 1.35 40.2.16 14.5-2.1 34.86-10.23 48.3-19.3 8.4-5.69 23.15-20.79 28.95-29.66 6.96-10.65 12.17-22.5 15.77-35.9 2.96-11 3.14-12.6 3.13-29.63-.01-16.95-.2-18.7-3.15-30-13.04-49.8-54.4-83.22-106.7-86.2zm475.9.16c-8.55-.09-17.1.7-23.78 2.35-32.36 8.04-52.6 27.53-56.82 54.7-1.43 9.22-.11 19.18 3.86 29.16 2.25 5.65 4.21 8.32 11.34 15.47 7.6 7.62 9.98 9.3 20.06 14.24 6.87 3.37 21.2 8.81 35.94 13.65 26.73 8.79 36.64 13.14 43.36 19.05 5.82 5.12 7.64 9.22 7.64 17.2 0 5.66-.42 7.11-3.25 11.35-6.87 10.27-18.05 14.9-35.75 14.8-10.5-.06-12.21-.34-19.6-3.26-14.46-5.71-25.96-18.93-28.5-32.78-.6-3.24-1.24-6.04-1.41-6.23-.36-.36-15.8 3.75-26.98 7.19-5.66 1.74-7.41 2.79-9.25 5.54-2.98 4.47-2.88 9.24.34 17.17 10.33 25.43 35.32 45.31 63.3 50.38 9.04 1.64 30.83 1.92 40.5.52 3.8-.55 11-2.37 16-4.03 19.22-6.41 35.14-19.52 42.56-35.04 4.8-10.02 6.04-15.95 6.04-28.82 0-15.9-4.22-27.44-14.04-38.37-11.51-12.82-25.9-19.96-66.71-33.1-32.86-10.57-42.3-17-42.23-28.8.03-6.03 2.98-11.86 8.1-16.03 6.31-5.14 12.6-7.03 25.09-7.55 8.85-.37 11.89-.09 17.51 1.62a41.12 41.12 0 0 1 28.37 30.68 89.44 89.44 0 0 0 1.31 5.47c1.1-.08 23.64-6.34 27.57-7.66 13.63-4.57 13.2-17.51-1.2-36.76-10.08-13.45-27.03-24.35-45.56-29.3-6.68-1.8-15.24-2.73-23.8-2.81zM722.63 78.04l-12.4 25.28c-6.82 13.9-21.58 43.95-32.81 66.77-11.23 22.83-24.83 50.5-30.22 61.5-5.38 11-14.58 29.68-20.44 41.5a1243 1243 0 0 0-12.05 24.75l-1.4 3.25h21.3c27.73 0 25.06 1.7 37.65-23.91 6.16-12.53 10.23-19.69 11.5-20.18 3.14-1.23 104.25-1.08 106.56.15 1.14.61 5.98 9.22 11.49 20.45 7.87 16.05 10.09 19.75 12.86 21.47 3.15 1.94 4.6 2.05 24.8 1.8l21.45-.28-12.14-24.5c-11.62-23.46-20.76-42.08-71.72-146a10858.2 10858.2 0 0 0-24.1-49c-1.3-2.47-1.5-2.5-15.82-2.77zm898.82.05c-86.68 0-86.97.01-89.62 2.1-4.97 3.9-5.61 6.54-5.61 22.86v15.04h69v183h43v-183h30.04c32.72 0 33.83-.16 37.54-5.7 1.6-2.37 1.93-5.2 2.25-18.55l.38-15.75zm135.4 0c-15.77 0-17.6.19-19.87 1.98-6.07 4.77-5.76-1.3-5.76 114.93v106.1h16.55c18.45 0 21.06-.68 24.49-6.3 1.9-3.13 1.96-5.84 1.96-109.96V78.1zm-598.75.01c-39.68 0-40.68.04-43.27 2.08-5.92 4.66-5.61-1.24-5.61 108.72 0 71.45.32 101.83 1.1 104.09.62 1.75 2.75 4.3 4.74 5.65 3.49 2.37 4.22 2.46 20.39 2.46h16.77V117.86l23.25.48c28.1.57 33.34 1.77 41.59 9.51 7.1 6.67 9.48 12.52 9.48 23.25 0 9.68-1.87 15.14-7.34 21.36-7.16 8.16-15.91 10.75-39.03 11.54l-17.56.6 34.67 56c25.24 40.77 35.55 56.6 37.95 58.25 3.16 2.17 4.09 2.25 25.75 2.25h22.47l-1.62-2.5c-.89-1.38-2.22-3.52-2.97-4.75-.75-1.24-5.86-9.45-11.37-18.25-27.73-44.31-36.27-58.28-36.27-59.29 0-.6 2.8-2.58 6.25-4.4 9.64-5.09 20.5-16.48 25.59-26.85 5.97-12.18 7.5-19.14 7.5-33.96 0-14.8-1.52-21.74-7.49-34-3.27-6.74-5.73-10.06-11.81-16-8.96-8.74-17.53-13.79-30.54-17.95-14.57-4.67-19.15-5.04-62.62-5.05zm253.03 37.54a70.17 70.17 0 0 1 20.37 3.6c23.19 7.87 38.08 23.44 45.3 47.36 2.4 7.94 2.71 10.64 2.71 23 0 12.32-.32 15.08-2.7 23-8.07 26.91-28.68 45.32-55.29 49.4-21.72 3.32-42.84-1.5-58.16-13.29-32.59-25.07-36.44-79.9-7.82-111.29 13.18-14.45 34.68-22.42 55.59-21.78zM736.99 144.6l11.95 24.5a5451.62 5451.62 0 0 0 16.22 33c2.34 4.67 4.65 9.5 5.13 10.75l.87 2.25h-33.98c-18.69 0-33.97-.22-33.97-.48 0-.27 3.88-8.48 8.63-18.25l16.9-34.77z"/><path fill="#01725d" d="M235.44 2.97c-29.22.05-27.19.63-29.49 3.42-.84 1.02-1.53 2.03-1.53 2.25 0 .22-5.07 9.72-11.26 21.12a32921.81 32921.81 0 0 0-24.5 45.14c-1.4 2.52-3.15 5.72-3.91 7.12-20.22 37.25-31.16 57.48-31.37 58.04-.23.6 3.8.7 25.49.7 24.27 0 25.86-.05 27.64-.96 2.77-1.41 3.58-2.53 5.82-8.05a23657.43 23657.43 0 0 0 18.32-45.15c1.69-4.2 3.43-8.18 3.87-8.85.44-.67 1.95-1.75 3.36-2.41l2.56-1.2h162.57l-3.67-7c-2.02-3.85-8.4-15.8-14.19-26.57a5361.14 5361.14 0 0 1-13.72-25.69c-3.5-6.65-5.3-8.91-8.41-10.6l-2.03-1.1-64.6-.14c-18-.04-31.21-.08-40.95-.07zm126.9 96.66c-11.72-.02-27.57.02-49.1.06-77.7.13-78.06.13-79.83 1.17-2.44 1.44-3.43 3.08-7.1 11.77a3319.1 3319.1 0 0 1-4.6 10.84c-.78 1.82-2.96 6.97-4.84 11.44l-6.33 15c-1.6 3.79-3.3 7.9-3.79 9.14-1.27 3.27-2.64 4.98-5.04 6.27l-2.12 1.13-39.67.25c-35.66.23-39.83.34-41.2 1.1-2.01 1.1-3.33 2.63-5.22 6.02l-2.69 4.84-7.86 14.24-10.1 18.3-3.37 6.11 9.53.15c5.25.08 37.12.45 70.83.82 33.7.36 61.86.7 62.56.73 3.43.2 7.46-1.94 8.83-4.68.84-1.67 9.17-21.33 13.29-31.35 4.67-11.36 5.63-13.05 8.28-14.61l2.4-1.41 84.3-.14c46.37-.07 84.3-.26 84.3-.43 0-.16-.83-1.82-1.86-3.68-1.02-1.86-8.57-15.74-16.77-30.85-11.3-20.82-15.37-27.87-16.8-29.13-2.86-2.52-.88-3.06-36.03-3.1zm3.57 92.61c-53.7-.1-77.27.02-79.6.41-1.83.3-4.15 1.11-5.2 1.8-2.15 1.4-1.55.25-16.54 32.18-3.35 7.12-6.71 13.58-7.53 14.44-3.16 3.35 1.11 3.13-66.35 3.54-112.36.68-111.99.68-114.01 1.41-3.2 1.16-4.35 2.58-9.13 11.22-4.8 8.69-16.45 29.67-19.86 35.8-1.08 1.92-1.96 3.7-1.96 3.94 0 .26 53.3.4 122.96.32l122.96-.14 2.44-1.21c2.07-1.03 4.93-4.04 4.93-5.2 0-.17 1.75-3.95 3.89-8.4a2183 2183 0 0 0 9.67-20.54c6.26-13.48 7.78-15.65 11.68-16.74 1.37-.37 24.97-.55 76.87-.55 41.2 0 74.9-.15 74.9-.33 0-.38-1.33-2.84-14.87-27.64-10.84-19.87-11.97-21.45-16.56-23.23-2.28-.88-6.18-.94-78.7-1.08zm48.93 77.72c-47.57 0-69.9.17-71.23.54-4.01 1.11-5.31 3.21-15.28 24.63a990.03 990.03 0 0 1-10.5 22.1 10.81 10.81 0 0 1-3.76 3.82l-2.5 1.54-138.9.26c-91.27.17-139.17.43-139.7.76-.45.28-1.49 1.08-2.3 1.78-2.08 1.78-.27-1.34-21.1 36.47a430.82 430.82 0 0 0-7.07 13.1c0 .15 122.57.28 272.39.28h272.38l-1.25-2.17c-3-5.2-51.69-95.63-51.69-96 0-1.15-4.83-5.1-7.4-6.07-2.79-1.04-3.3-1.05-72.09-1.04z"/></svg>